<svg width="464" height="460" viewBox="0 0 464 460" fill="none" xmlns="http://www.w3.org/2000/svg">
<path d="M395.386 43.2721C406.236 41.37 413.636 46.2837 415.98 48.9783C419.998 57.7278 414.306 64.0364 410.957 66.097C404.26 68.7916 389.057 73.2297 381.825 69.4256C372.784 64.6704 381.825 45.6497 395.386 43.2721Z" fill="#D9D9D9"/>
<path d="M268.34 52.307C272.76 78.1752 248.248 91.775 248.248 91.775C247.301 61.1833 267.873 0 357.746 0C403.454 5.2307 431.079 34.7128 443.636 58.0132C456.193 81.3136 459.207 112.698 454.184 130.292C435.298 186.213 393.408 199.559 374.823 199.242C375.326 185.928 399.435 181.172 403.956 173.564C407.881 156.588 426.993 134.986 431.079 126.012C423.014 100.748 423.388 86.3223 424.549 82.2646C411.289 82.2646 419.024 111.43 424.549 126.012C417.245 129.809 402.455 159.638 394.915 173.564C373.216 181.172 369.131 191.951 369.801 196.389C351.718 203.997 326.772 204.948 316.559 204.473C314.148 215.885 351.049 209.228 369.801 204.473C395.517 210.94 425.052 190.049 436.604 178.795L454.184 199.242C444.54 201.525 437.106 196.072 434.595 193.06C411.691 221.972 348.37 225.396 319.572 223.493C294.257 225.015 293.956 210.179 296.97 202.571C299.314 200.51 305.609 194.487 312.038 186.879C339.362 152.641 377 143.131 392.403 142.655H394.915C399.737 140.373 396.924 137.583 394.915 136.474C347.499 133.43 307.852 175.149 293.956 196.389C258.997 189.922 262.312 172.137 268.34 164.054C271.186 162.627 279.289 158.347 288.933 152.641C310.23 129.436 366.787 123.001 392.403 122.684C402.449 119.64 396.589 90.9824 392.403 77.0339C397.091 77.6679 408.577 77.2241 417.015 70.3767C436.705 50.5951 416.513 38.3584 403.956 34.7128C384.838 37.5659 347.031 28.5311 332.129 18.5452C322.053 29.0066 284.078 47.5518 268.34 52.307Z" fill="#D9D9D9"/>
<circle cx="110.5" cy="113.5" r="110.5" fill="#D9D9D9"/>
<path d="M46.666 388.651C53.7484 374.88 67.9787 375.7 74.2086 377.831C79.1269 378.886 85.5208 388.651 75.6841 401.439C67.8148 411.669 59.2897 412.587 56.0108 411.767C49.9449 409.8 39.5836 402.423 46.666 388.651Z" fill="#D9D9D9"/>
<path d="M46.666 447.671C3.77813 424.85 1.90918 377.831 6.33569 357.174C12.2377 365.863 25.8123 385.995 32.8947 397.012C38.3049 411.767 54.0435 421.112 63.3883 421.112C70.7659 418.653 95.3575 414.718 105.194 423.571C113.063 430.654 126.835 433.408 132.737 433.9C137.655 433.08 149.164 431.342 155.853 430.949C162.542 430.555 184.871 436.359 195.2 439.31C196.183 438.326 200.708 436.654 210.938 437.835C222.349 443.343 219.299 447.999 216.348 449.639L97.3248 451.114C87.98 451.77 64.7655 451.999 46.666 447.671Z" fill="#D9D9D9"/>
<path d="M39.2885 387.668C-13.0425 337.697 8.30302 292.088 25.5172 275.53C25.5172 281.432 41.2558 286.35 51.0925 285.366C58.9618 284.579 69.7821 268.644 74.2086 260.775C116.67 259.955 202.577 258.217 206.512 257.824C211.43 257.332 216.348 262.25 212.906 264.709L212.857 264.744C209.38 267.228 200.539 273.544 185.363 269.628C159.788 279.071 135.688 277.497 126.835 275.53C110.703 287.727 91.9146 291.76 84.5371 292.252C77.0613 310.351 52.568 334.222 41.2558 343.894C38.6327 342.091 33.3865 337.206 33.3865 332.091C36.9277 326.783 38.7967 309.55 39.2885 301.597C37.6491 300.613 33.78 299.236 31.4192 301.597C31.4192 310.253 27.4845 325.533 25.5172 332.091C43.2231 364.748 42.0755 382.749 39.2885 387.668Z" fill="#D9D9D9"/>
<path d="M33.8782 264.218C35.4521 248.085 52.5679 245.364 60.9291 246.02C63.0603 247.003 67.3229 250.446 67.3229 256.348C59.8471 272.087 51.7482 277.333 48.6332 277.989C43.0591 280.12 32.3044 280.35 33.8782 264.218Z" fill="#D9D9D9"/>
<path fill-rule="evenodd" clip-rule="evenodd" d="M329.919 261.33C309.136 262.507 308.188 247.769 310.312 240.253C312.786 239.635 314.138 239.211 315.014 238.937L315.014 238.937L315.014 238.937C315.682 238.728 316.073 238.605 316.474 238.549C317.044 238.468 317.633 238.521 319.058 238.648C319.49 238.686 319.998 238.732 320.606 238.783C325.311 239.175 330.082 245.155 331.88 248.096C333.84 250.383 336.193 256.233 329.919 261.33ZM300.999 252.507H260.315C257.864 253.814 251.59 258.88 246.1 268.683C232.375 291.427 240.381 313.452 246.1 321.621C245.873 322.263 245.655 322.861 245.449 323.429L245.448 323.43L245.448 323.431L245.448 323.431C242.967 330.245 242.028 332.823 246.1 355.443C257.374 381.912 299.038 389.265 311.783 389.265C321.978 389.265 321.259 393.513 319.625 395.637L255.903 441.713L257.864 450.536C280.248 451.353 327.272 452.497 336.291 450.536C345.31 448.576 342.337 443.837 339.722 441.713L325.017 440.243L351.486 395.637C350.833 392.043 346.879 385.147 336.291 386.324C325.703 387.5 305.084 381.586 296.097 378.481C288.254 371.782 271.392 356.62 266.687 349.561C261.981 342.503 266.687 342.045 269.628 342.699C277.634 352.012 295.411 371.717 302.469 376.03C314.233 380.736 340.049 381.586 351.486 381.422L363.741 389.265C373.217 388.775 395.896 386.52 410.797 381.422C425.698 376.324 440.861 366.227 446.58 361.815C443.638 362.796 436.09 361.717 429.424 349.561C430.208 333.483 446.416 326.196 454.422 324.562C458.344 323.582 443.638 278.486 437.756 271.624C433.051 266.134 417.823 256.592 410.797 252.507H346.585C346.094 253.324 342.859 257.017 333.84 265.252C318.155 271.526 305.41 259.37 300.999 252.507ZM251.001 386.324V428.969C253.289 430.112 258.746 429.067 262.275 415.734H284.333L311.783 394.167C297.894 394.167 268.059 392.598 259.824 386.324C251.59 380.05 250.511 383.71 251.001 386.324ZM264.991 264.979C264.01 269.881 260.677 280.567 255.187 284.096C257.475 286.547 262.05 292.331 262.05 295.86C258.455 303.703 256.658 319.781 278.225 321.349C283.944 328.259 297.44 345.777 305.675 360.563C314.498 361.216 338.418 365.661 363.515 378.209L392.925 373.797C394.396 371.183 398.807 364.876 404.689 360.563C405.833 349.125 411.552 325.859 425.276 324.29L429.198 307.624C425.767 299.618 419.394 282.135 421.355 276.253C416.617 273.966 407.042 268.803 406.65 266.45C397.275 269.106 378.037 273.406 372.945 270.347C372.738 270.187 372.536 270.031 372.338 269.881C372.509 270.052 372.712 270.207 372.945 270.347C382.624 277.867 401.405 296.547 403.709 314.977C403.219 322.656 401.16 338.603 396.847 340.956C397.173 347.492 397.337 360.563 395.376 360.563C394.689 360.563 393.307 361.257 391.513 362.158C386.91 364.471 379.589 368.149 374.299 364.974C372.992 352.066 370.769 323.408 372.338 312.036C368.809 302.625 366.946 306.154 366.456 309.095C364.822 319.225 361.358 339.485 360.574 339.485C362.927 349.681 361.554 360.726 360.574 364.974C354.365 364.157 342.242 361.445 343.418 357.132C344.725 352.72 347.143 341.74 346.359 333.113C341.261 329.584 338.332 304.255 337.505 292.032C320.133 293.298 301.283 277.895 293.911 269.881C288.421 272.626 272.343 267.757 264.991 264.979Z" fill="#D9D9D9"/>
<path d="M268.388 310.851C263.682 304.969 271.656 297.616 276.231 295.165C280.544 293.597 286.851 294.838 289.465 295.165C292.243 296.636 297.372 300.119 293.843 305.217C290.314 310.314 285.544 314.034 279.172 314.772C277.865 315.262 273.878 315.164 268.388 310.851Z" fill="#D9D9D9"/>
<path d="M411.552 387.032C423.316 385.856 444.883 371.183 454.197 363.994C452.073 373.471 445.373 394.973 435.57 405.168C423.806 414.972 414.983 406.639 411.552 408.599C408.807 410.168 392.108 414.155 384.102 415.952L378.22 423.795C374.789 427.063 368.319 434.186 369.887 436.539C371.848 439.48 374.299 452.225 369.887 458.107C357.731 460.46 344.562 459.087 339.497 458.107L353.712 440.951C354.202 437.52 354.888 429.285 353.712 423.795C352.241 416.932 364.495 407.619 367.927 403.208C371.358 398.796 396.847 388.502 411.552 387.032Z" fill="#D9D9D9"/>
<path d="M444.884 353.7C431.159 350.171 439.165 339.485 444.884 334.584C451.746 329.682 453.216 331.152 458.118 331.152C462.04 331.152 463.673 336.708 464 339.485C463.673 344.224 459.393 353.7 444.884 353.7Z" fill="#D9D9D9"/>
<path d="M422.336 451.244C397.631 458.303 388.514 433.925 387.043 420.854C392.925 419.547 405.572 416.932 409.101 416.932H428.218C427.401 419.056 426.257 424.089 428.218 427.226C430.178 430.363 444.393 424.285 451.256 420.854C452.563 422.324 452.432 428.991 449.295 443.892C446.55 455.656 442.923 453.695 440.472 451.244L438.021 443.892C437.858 444.872 434.492 447.715 422.336 451.244Z" fill="#D9D9D9"/>
</svg>
